<?xml version="1.0" encoding="UTF-8" standalone="no"?>
<svg
   xmlns:dc="http://purl.org/dc/elements/1.1/"
   xmlns:cc="http://creativecommons.org/ns#"
   xmlns:rdf="http://www.w3.org/1999/02/22-rdf-syntax-ns#"
   xmlns:svg="http://www.w3.org/2000/svg"
   xmlns="http://www.w3.org/2000/svg"
   viewBox="0 0 49.586666 33.573334"
   height="33.573334"
   width="49.586666"
   xml:space="preserve"
   id="svg2"
   version="1.1"><metadata
     id="metadata8"><rdf:RDF><cc:Work
         rdf:about=""><dc:format>image/svg+xml</dc:format><dc:type
           rdf:resource="http://purl.org/dc/dcmitype/StillImage" /></cc:Work></rdf:RDF></metadata><defs
     id="defs6" /><g
     transform="matrix(1.3333333,0,0,-1.3333333,0,33.573333)"
     id="g10"><g
       transform="scale(0.1)"
       id="g12"><path
         id="path14"
         style="fill:#000000;fill-opacity:1;fill-rule:nonzero;stroke:none"
         d="m 369.859,178.301 c 0,-39.508 -82.347,-71.528 -183.925,-71.528 -101.5824,0 -183.93009,32.02 -183.93009,71.528 V 73.5313 c 0,-39.504 82.34769,-71.52739 183.93009,-71.52739 101.578,0 183.925,32.02339 183.925,71.52739 V 178.301" /><path
         id="path16"
         style="fill:none;stroke:#ffffff;stroke-width:4;stroke-linecap:butt;stroke-linejoin:miter;stroke-miterlimit:4;stroke-dasharray:none;stroke-opacity:1"
         d="m 369.859,178.301 c 0,-39.508 -82.347,-71.528 -183.925,-71.528 -101.5824,0 -183.93009,32.02 -183.93009,71.528 V 73.5313 c 0,-39.504 82.34769,-71.52739 183.93009,-71.52739 101.578,0 183.925,32.02339 183.925,71.52739 z" /><path
         id="path18"
         style="fill:#000000;fill-opacity:1;fill-rule:nonzero;stroke:none"
         d="m 185.934,106.773 c 101.578,0 183.925,32.02 183.925,71.528 0,39.5 -82.347,71.523 -183.925,71.523 -101.5824,0 -183.93009,-32.023 -183.93009,-71.523 0,-39.508 82.34769,-71.528 183.93009,-71.528" /><path
         id="path20"
         style="fill:none;stroke:#ffffff;stroke-width:4;stroke-linecap:butt;stroke-linejoin:miter;stroke-miterlimit:4;stroke-dasharray:none;stroke-opacity:1"
         d="m 185.934,106.773 c 101.578,0 183.925,32.02 183.925,71.528 0,39.5 -82.347,71.523 -183.925,71.523 -101.5824,0 -183.93009,-32.023 -183.93009,-71.523 0,-39.508 82.34769,-71.528 183.93009,-71.528 z" /><path
         id="path22"
         style="fill:#ffffff;fill-opacity:1;fill-rule:nonzero;stroke:none"
         d="m 143.926,206.27 15.191,-22.79 -57.426,-13.269 12.547,10.453 -88.7458,15.16 22.2617,16.696 85.6371,-14.508 10.535,8.258" /><path
         id="path24"
         style="fill:#ffffff;fill-opacity:1;fill-rule:nonzero;stroke:none"
         d="m 224.727,151.02 -10.36,23.484 51.797,10.355 -8.98,-8.054 86.328,-14.735 -20.719,-16.578 -85.805,16.113 -12.261,-10.585" /><path
         id="path26"
         style="fill:#ffffff;fill-opacity:1;fill-rule:nonzero;stroke:none"
         d="m 196.41,218.703 58.016,15.883 0.687,-24.863 -14.504,2.761 -28.312,-23.48 -27.02,3.934 29.227,22.98 -18.094,2.785" /><path
         id="path28"
         style="fill:#ffffff;fill-opacity:1;fill-rule:nonzero;stroke:none"
         d="m 171.547,129.609 -55.246,-10.355 -2.071,25.551 15.883,-3.453 30.41,25.968 26.911,-4.558 -32.457,-28.313 16.57,-4.84" /></g></g></svg>