<?xml version="1.0" encoding="UTF-8" standalone="no"?>
<svg
   xmlns:dc="http://purl.org/dc/elements/1.1/"
   xmlns:cc="http://creativecommons.org/ns#"
   xmlns:rdf="http://www.w3.org/1999/02/22-rdf-syntax-ns#"
   xmlns:svg="http://www.w3.org/2000/svg"
   xmlns="http://www.w3.org/2000/svg"
   viewBox="0 0 65.080002 32.746666"
   height="32.746666"
   width="65.080002"
   xml:space="preserve"
   id="svg2"
   version="1.1"><metadata
     id="metadata8"><rdf:RDF><cc:Work
         rdf:about=""><dc:format>image/svg+xml</dc:format><dc:type
           rdf:resource="http://purl.org/dc/dcmitype/StillImage" /></cc:Work></rdf:RDF></metadata><defs
     id="defs6" /><g
     transform="matrix(1.3333333,0,0,-1.3333333,0,32.746667)"
     id="g10"><g
       transform="scale(0.1)"
       id="g12"><path
         id="path14"
         style="fill:#000000;fill-opacity:1;fill-rule:nonzero;stroke:none"
         d="M 363.777,8.76172 V 124.711 H 6.57422 V 8.76172 H 363.777" /><path
         id="path16"
         style="fill:#000000;fill-opacity:1;fill-rule:nonzero;stroke:none"
         d="M 5.64453,124.125 149.93,241.066 H 483.223 L 363.445,124.125 H 5.64453" /><path
         id="path18"
         style="fill:none;stroke:#ffffff;stroke-width:4;stroke-linecap:butt;stroke-linejoin:miter;stroke-miterlimit:4;stroke-dasharray:none;stroke-opacity:1"
         d="M 5.64453,124.125 149.93,241.066 H 483.223 L 363.445,124.125 Z" /><path
         id="path20"
         style="fill:#000000;fill-opacity:1;fill-rule:nonzero;stroke:none"
         d="M 363.578,5.10547 482.891,134.027 482.977,240.859 363.578,124.293 V 5.10547" /><path
         id="path22"
         style="fill:none;stroke:#ffffff;stroke-width:4;stroke-linecap:butt;stroke-linejoin:miter;stroke-miterlimit:4;stroke-dasharray:none;stroke-opacity:1"
         d="M 363.578,5.10547 482.891,134.027 482.977,240.859 363.578,124.293 Z" /><path
         id="path24"
         style="fill:#ffffff;fill-opacity:1;fill-rule:nonzero;stroke:none"
         d="m 215.023,154.551 -6.929,-5.68 h -89.09 l -8.883,-8.883 -24.1522,10.524 48.5582,13.883 -8.593,-9.844 h 89.089" /><path
         id="path26"
         style="fill:#ffffff;fill-opacity:1;fill-rule:nonzero;stroke:none"
         d="m 285.023,198.301 -6.929,-5.68 h -89.09 l -8.883,-8.883 -24.152,10.524 48.558,13.883 -8.593,-9.844 h 89.089" /><path
         id="path28"
         style="fill:#ffffff;fill-opacity:1;fill-rule:nonzero;stroke:none"
         d="m 230.738,170.012 6.93,5.679 h 89.09 l 8.883,8.879 24.152,-10.519 -48.559,-13.883 8.594,9.844 h -89.09" /><path
         id="path30"
         style="fill:#ffffff;fill-opacity:1;fill-rule:nonzero;stroke:none"
         d="m 276.988,213.762 6.93,5.679 h 89.09 l 8.883,8.879 24.152,-10.519 -48.559,-13.883 8.594,9.844 h -89.09" /></g></g></svg>